<svg width="800" height="800" viewBox="0 0 800 800" fill="none" xmlns="http://www.w3.org/2000/svg">
  <defs>
    <linearGradient id="bg" x1="0" y1="0" x2="800" y2="800" gradientUnits="userSpaceOnUse">
      <stop stop-color="#132744"/>
      <stop offset="1" stop-color="#0C1628"/>
    </linearGradient>
    <radialGradient id="glowA" cx="0" cy="0" r="1" gradientUnits="userSpaceOnUse" gradientTransform="translate(650 140) rotate(146.31) scale(420 326)">
      <stop stop-color="#44C6FF" stop-opacity="0.66"/>
      <stop offset="1" stop-color="#44C6FF" stop-opacity="0"/>
    </radialGradient>
    <radialGradient id="glowB" cx="0" cy="0" r="1" gradientUnits="userSpaceOnUse" gradientTransform="translate(132 706) rotate(-33.87) scale(376 264)">
      <stop stop-color="#42E0B7" stop-opacity="0.44"/>
      <stop offset="1" stop-color="#42E0B7" stop-opacity="0"/>
    </radialGradient>
    <pattern id="dots" width="28" height="28" patternUnits="userSpaceOnUse">
      <circle cx="1.5" cy="1.5" r="1.2" fill="#D3E7FF" fill-opacity="0.2"/>
    </pattern>
  </defs>
  <rect width="800" height="800" rx="24" fill="url(#bg)"/>
  <rect width="800" height="800" rx="24" fill="url(#glowA)"/>
  <rect width="800" height="800" rx="24" fill="url(#glowB)"/>
  <rect width="800" height="800" rx="24" fill="url(#dots)"/>

  <g opacity="0.95">
    <rect x="90" y="106" width="620" height="468" rx="20" fill="#0F1E34" fill-opacity="0.7" stroke="#88BCE8" stroke-opacity="0.45"/>
    <rect x="120" y="136" width="560" height="326" rx="16" fill="#0A172A" fill-opacity="0.85" stroke="#A0CFF3" stroke-opacity="0.24"/>
    <path d="M120 382L246 256L346 336L438 282L680 462V462H120V382Z" fill="#5D9DD2" fill-opacity="0.23"/>
    <circle cx="578" cy="212" r="42" fill="#8FD5FF" fill-opacity="0.3"/>
  </g>

  <rect x="90" y="612" width="360" height="58" rx="10" fill="#C5E4FF" fill-opacity="0.28"/>
  <rect x="90" y="688" width="248" height="30" rx="10" fill="#C5E4FF" fill-opacity="0.2"/>
</svg>
